<svg xmlns="http://www.w3.org/2000/svg" xmlns:xlink="http://www.w3.org/1999/xlink" width="180" height="180" viewBox="0 0 180 180"><defs><clipPath id="a"><rect width="180" height="180" fill="#5eb3e4"/></clipPath></defs><g transform="translate(0 -0.267)"><g transform="translate(0 0.267)"><g transform="translate(0 0)" clip-path="url(#a)"><path d="M90.156,0a90.156,90.156,0,1,0,90.156,90.156A90.258,90.258,0,0,0,90.156,0m0,178.344a88.188,88.188,0,1,1,88.188-88.188,88.288,88.288,0,0,1-88.188,88.188" transform="translate(0 -0.168)" fill="#5eb3e4"/><path d="M90.61,28.337A62.273,62.273,0,1,0,152.883,90.61,62.344,62.344,0,0,0,90.61,28.337m0,122.6A60.326,60.326,0,1,1,150.936,90.61,60.394,60.394,0,0,1,90.61,150.936" transform="translate(-0.454 -0.623)" fill="#5eb3e4"/><path d="M43.428,93.751a1.439,1.439,0,0,1-.1.384.661.661,0,0,1-.2.266.514.514,0,0,1-.325.1H40.831V91.723h2.332v-.589H40.831v-2.46h1.653a.577.577,0,0,1,.335.089.594.594,0,0,1,.2.251,1.225,1.225,0,0,1,.093.408l.049.462h.689l-.039-1.811H38.351V88.6h.413a.693.693,0,0,1,.261.044.331.331,0,0,1,.177.177,1.009,1.009,0,0,1,.064.418v4.753a.832.832,0,0,1-.069.384.332.332,0,0,1-.182.167.775.775,0,0,1-.251.039h-.413V95.1h5.766l.069-1.81h-.679Z" transform="translate(-0.615 -1.58)" fill="#5eb3e4"/><path d="M50.093,91.526A5.346,5.346,0,0,0,49,90.955a6.191,6.191,0,0,1-1.013-.5,1.4,1.4,0,0,1-.482-.468,1.052,1.052,0,0,1-.128-.511.813.813,0,0,1,.29-.675,1.066,1.066,0,0,1,.684-.23.826.826,0,0,1,.61.225,1.358,1.358,0,0,1,.33.541,1.906,1.906,0,0,1,.1.591,1.459,1.459,0,0,0,.91-.236.717.717,0,0,0,.3-.581.862.862,0,0,0-.221-.581,1.5,1.5,0,0,0-.684-.408,3.857,3.857,0,0,0-1.191-.153,2.969,2.969,0,0,0-1.235.246,2.075,2.075,0,0,0-.861.689,1.747,1.747,0,0,0-.315,1.042,2.045,2.045,0,0,0,.172.861,1.828,1.828,0,0,0,.576.69,4.84,4.84,0,0,0,1.092.6,8.827,8.827,0,0,1,.915.428,1.719,1.719,0,0,1,.546.443.929.929,0,0,1,.182.576,1,1,0,0,1-.32.757,1.252,1.252,0,0,1-.9.306,1.29,1.29,0,0,1-.7-.192,1.274,1.274,0,0,1-.477-.572,2.262,2.262,0,0,1-.172-.94,1.664,1.664,0,0,0-.541.089.878.878,0,0,0-.413.29.851.851,0,0,0-.157.537,1.14,1.14,0,0,0,.113.481,1.2,1.2,0,0,0,.379.448,2.081,2.081,0,0,0,.708.325,4.159,4.159,0,0,0,1.1.123,3.367,3.367,0,0,0,1.417-.276,2.192,2.192,0,0,0,.93-.762,1.947,1.947,0,0,0,.33-1.117,1.722,1.722,0,0,0-.787-1.515" transform="translate(-0.736 -1.579)" fill="#5eb3e4"/><path d="M52.41,88.073l-.049,1.909h.659l.069-.61a.914.914,0,0,1,.207-.511.8.8,0,0,1,.61-.188h.787v5.264a1.037,1.037,0,0,1-.064.414.333.333,0,0,1-.177.181.69.69,0,0,1-.261.044h-.413V95.1h3.395v-.522h-.413a.7.7,0,0,1-.256-.044.331.331,0,0,1-.182-.181,1.037,1.037,0,0,1-.064-.414V88.673h.787a.8.8,0,0,1,.61.188.914.914,0,0,1,.207.511l.069.61h.659l-.049-1.909Z" transform="translate(-0.84 -1.58)" fill="#5eb3e4"/><path d="M60.349,95.268a.948.948,0,0,0,.566-.173.911.911,0,0,0,0-1.235,1.049,1.049,0,0,0-1.136,0,.925.925,0,0,0,0,1.235.94.94,0,0,0,.571.173" transform="translate(-0.955 -1.671)" fill="#5eb3e4"/><path d="M126.935,94.5a.363.363,0,0,1-.148-.216,1.315,1.315,0,0,1-.039-.349v-5.9h-1.1l-.689.512a4.245,4.245,0,0,1-.851.522,5.037,5.037,0,0,1-.664.235.789.789,0,0,0,.167.531.51.51,0,0,0,.4.2.881.881,0,0,0,.6-.285,8.574,8.574,0,0,0,.674-.738v4.93a1.1,1.1,0,0,1-.054.384.371.371,0,0,1-.162.2.575.575,0,0,1-.276.058h-.807V95.1h4.064v-.521h-.8a.558.558,0,0,1-.315-.074" transform="translate(-1.979 -1.58)" fill="#5eb3e4"/><path d="M132.984,88.318a2.54,2.54,0,0,0-2.475-.044,2,2,0,0,0-.777.836,2.734,2.734,0,0,0-.271,1.245,2.328,2.328,0,0,0,.246,1.117,1.626,1.626,0,0,0,.684.689,2.1,2.1,0,0,0,1,.231,1.8,1.8,0,0,0,.59-.089,1.623,1.623,0,0,0,.458-.241,1.875,1.875,0,0,0,.349-.339,5.579,5.579,0,0,1-.394,2.136,1.079,1.079,0,0,1-.994.717,1.036,1.036,0,0,1-.556-.143,1.152,1.152,0,0,1-.379-.379,2.49,2.49,0,0,1-.246-.531.6.6,0,0,0-.364.2.566.566,0,0,0-.118.364,1,1,0,0,0,.157.531,1.126,1.126,0,0,0,.512.418,2.3,2.3,0,0,0,.945.162,2.584,2.584,0,0,0,1.294-.305,2.479,2.479,0,0,0,.876-.841,3.877,3.877,0,0,0,.5-1.25,7.024,7.024,0,0,0,.157-1.52,4.736,4.736,0,0,0-.32-1.889,2.31,2.31,0,0,0-.871-1.073M132.4,91.5a.968.968,0,0,1-.59.182.776.776,0,0,1-.689-.354,1.866,1.866,0,0,1-.236-1.033,3.468,3.468,0,0,1,.1-.92,1.164,1.164,0,0,1,.305-.556.689.689,0,0,1,1,.064,1.819,1.819,0,0,1,.349.777,6.25,6.25,0,0,1,.138,1.363,1.219,1.219,0,0,1-.384.477" transform="translate(-2.076 -1.579)" fill="#5eb3e4"/><path d="M138.128,94.379a1.4,1.4,0,0,1-.6.128,1.127,1.127,0,0,1-1.21-1.258.922.922,0,0,0-.585.2.683.683,0,0,0-.251.571.893.893,0,0,0,.221.576,1.533,1.533,0,0,0,.689.438,3.644,3.644,0,0,0,1.205.167,4.415,4.415,0,0,0,.984-.107,2.659,2.659,0,0,0,.851-.355,1.772,1.772,0,0,0,.6-.654,2.091,2.091,0,0,0,.221-1.009,1.49,1.49,0,0,0-.581-1.23,2.234,2.234,0,0,0-.566-.314,3.8,3.8,0,0,0-.605-.178,2.925,2.925,0,0,0,.772-.393,1.891,1.891,0,0,0,.536-.591,1.561,1.561,0,0,0,.2-.787,1.355,1.355,0,0,0-.61-1.186,2.907,2.907,0,0,0-1.663-.418,3.711,3.711,0,0,0-1.2.167,1.667,1.667,0,0,0-.728.448.939.939,0,0,0-.246.635.73.73,0,0,0,.335.665,1.771,1.771,0,0,0,.945.211,4.016,4.016,0,0,1,.064-.733,1.227,1.227,0,0,1,.246-.571.653.653,0,0,1,.536-.22.69.69,0,0,1,.61.3,1.475,1.475,0,0,1,.207.836,1.929,1.929,0,0,1-.138.758,1.116,1.116,0,0,1-.413.507,1.24,1.24,0,0,1-.7.182H136.6v.611h.61a1.606,1.606,0,0,1,1.132.364,1.2,1.2,0,0,1,.394.924,1.892,1.892,0,0,1-.167.876.959.959,0,0,1-.443.443" transform="translate(-2.173 -1.579)" fill="#5eb3e4"/><path d="M142.282,90.03a.881.881,0,0,0,.6-.285,8.412,8.412,0,0,0,.674-.738v4.93a1.1,1.1,0,0,1-.054.384.371.371,0,0,1-.162.2.572.572,0,0,1-.275.058h-.807V95.1h4.064v-.521h-.8a.558.558,0,0,1-.315-.074.368.368,0,0,1-.148-.216,1.315,1.315,0,0,1-.039-.349v-5.9h-1.1l-.689.512a4.246,4.246,0,0,1-.851.522,5.037,5.037,0,0,1-.664.235.794.794,0,0,0,.167.531.51.51,0,0,0,.4.2" transform="translate(-2.272 -1.58)" fill="#5eb3e4"/><path d="M53.389,148.744a7.427,7.427,0,0,0-1.753-1.692,6.253,6.253,0,0,0-2.389-1.11,4.285,4.285,0,0,0-2.3.117,3.755,3.755,0,0,0-1.841,1.4,4.593,4.593,0,0,0-.839,1.825,4.112,4.112,0,0,0,.135,1.974,10.628,10.628,0,0,0,1.113,2.389,15.781,15.781,0,0,1,1.046,1.94,3.458,3.458,0,0,1,.329,1.471,2.275,2.275,0,0,1-.471,1.263,2.342,2.342,0,0,1-1.659,1.027,2.917,2.917,0,0,1-2.068-.662,2.712,2.712,0,0,1-1.008-1.282,2.768,2.768,0,0,1-.058-1.609,5.261,5.261,0,0,1,.841-1.771,2.731,2.731,0,0,0-.952-.453,1.662,1.662,0,0,0-.964.034,1.774,1.774,0,0,0-.828.668,2.628,2.628,0,0,0-.45,1.052,2.683,2.683,0,0,0,.077,1.274,4.119,4.119,0,0,0,.772,1.407,8.349,8.349,0,0,0,1.632,1.5,7.024,7.024,0,0,0,2.729,1.278,4.6,4.6,0,0,0,2.515-.151,4.21,4.21,0,0,0,1.982-1.543,3.939,3.939,0,0,0,.761-1.789,4.348,4.348,0,0,0-.216-1.952,11.031,11.031,0,0,0-1.132-2.31,12.472,12.472,0,0,1-1.085-2.1,3.15,3.15,0,0,1-.235-1.455,2.557,2.557,0,0,1,.5-1.192,2.006,2.006,0,0,1,1.463-.9,2.41,2.41,0,0,1,1.677.511,1.916,1.916,0,0,1,.822,1.175,2.682,2.682,0,0,1-.082,1.346,4.089,4.089,0,0,1-.583,1.182,2.677,2.677,0,0,0,1.654.63,1.471,1.471,0,0,0,1.175-.632,1.859,1.859,0,0,0,.337-1.28,3.26,3.26,0,0,0-.637-1.575" transform="translate(-0.629 -2.507)" fill="#5eb3e4"/><path d="M67.41,156.066a8.822,8.822,0,0,0-2.235-1.358,7.3,7.3,0,0,0-4.019-.7,6.29,6.29,0,0,0-3.344,1.562A9.883,9.883,0,0,0,55.385,159a10.387,10.387,0,0,0-1,4.141,6.089,6.089,0,0,0,1.007,3.5,7.178,7.178,0,0,0,3.17,2.511,8.429,8.429,0,0,0,2.118.676,4.369,4.369,0,0,0,1.606,0,2.8,2.8,0,0,0,1.1-.467,1.865,1.865,0,0,0,.6-.715,1.325,1.325,0,0,0,.123-.538.937.937,0,0,0-.1-.45,6.506,6.506,0,0,1-1.18.492,4.15,4.15,0,0,1-1.455.166,4.922,4.922,0,0,1-1.757-.466,4.04,4.04,0,0,1-2-1.7,4.16,4.16,0,0,1-.392-2.547,11.834,11.834,0,0,1,1.008-3.321,14.482,14.482,0,0,1,1.819-3.122,4.468,4.468,0,0,1,2.061-1.544,3.337,3.337,0,0,1,2.434.236,2.133,2.133,0,0,1,1.115.986,2.46,2.46,0,0,1,.226,1.323,4.292,4.292,0,0,1-.353,1.336,2.785,2.785,0,0,0,1.788.268,1.525,1.525,0,0,0,1.092-.9,1.814,1.814,0,0,0,.046-1.355,3.436,3.436,0,0,0-1.051-1.443" transform="translate(-0.872 -2.637)" fill="#5eb3e4"/><path d="M81.107,160.495l.653.108a2.221,2.221,0,0,1,.658.208.877.877,0,0,1,.408.475,1.922,1.922,0,0,1,.023.968l-.7,4.206-6.006-1,.7-4.207a1.915,1.915,0,0,1,.336-.909.87.87,0,0,1,.55-.315,2.268,2.268,0,0,1,.68.015l.653.108.174-1.046-6.828-1.135-.174,1.047.653.108a2.376,2.376,0,0,1,.64.195.873.873,0,0,1,.422.454,1.663,1.663,0,0,1,.042.917l-1.725,10.379a1.949,1.949,0,0,1-.334.9.86.86,0,0,1-.553.325,2.229,2.229,0,0,1-.679-.015l-.653-.108-.174,1.047,6.827,1.135.174-1.047-.653-.108a2.193,2.193,0,0,1-.647-.207.851.851,0,0,1-.417-.486,1.9,1.9,0,0,1-.025-.958l.809-4.869,6.005,1-.809,4.869a1.907,1.907,0,0,1-.335.9.851.851,0,0,1-.54.328,2.255,2.255,0,0,1-.691-.016l-.653-.109-.173,1.047,6.827,1.135.174-1.047-.653-.108a2.373,2.373,0,0,1-.629-.192.828.828,0,0,1-.423-.455,1.706,1.706,0,0,1-.035-.894l1.73-10.4a2.011,2.011,0,0,1,.325-.911.823.823,0,0,1,.551-.315,2.273,2.273,0,0,1,.668.013l.653.108.174-1.046-6.827-1.135Z" transform="translate(-1.12 -2.701)" fill="#5eb3e4"/><path d="M105.662,162.6A6.241,6.241,0,0,0,103,160.112a7.023,7.023,0,0,0-3.909-.555,7.292,7.292,0,0,0-3.807,1.415,6.042,6.042,0,0,0-2.03,3,10.328,10.328,0,0,0-.312,4.239,10.47,10.47,0,0,0,1.24,4.087,6.1,6.1,0,0,0,2.634,2.516,7.167,7.167,0,0,0,4.017.554,7.024,7.024,0,0,0,3.7-1.413,6.294,6.294,0,0,0,2.058-3.029,11.218,11.218,0,0,0-.928-8.326m-1.8,8.02a4.528,4.528,0,0,1-.968,2.4,3.273,3.273,0,0,1-2.206,1.04,3.238,3.238,0,0,1-2.348-.533,4.522,4.522,0,0,1-1.495-2.12,14.435,14.435,0,0,1-.778-3.518,10.963,10.963,0,0,1,.34-4.95,3.135,3.135,0,0,1,2.832-2.069,3.26,3.26,0,0,1,2.358.521,4.445,4.445,0,0,1,1.471,2.113,17.317,17.317,0,0,1,.794,7.121" transform="translate(-1.489 -2.726)" fill="#5eb3e4"/><path d="M123.945,156.257a6.246,6.246,0,0,0-3.234-1.685,7.026,7.026,0,0,0-3.915.515,7.286,7.286,0,0,0-3.286,2.386,6.03,6.03,0,0,0-1.148,3.438,10.322,10.322,0,0,0,.837,4.167,10.486,10.486,0,0,0,2.292,3.6A6.111,6.111,0,0,0,118.7,170.4a7.167,7.167,0,0,0,4.018-.545,7.011,7.011,0,0,0,3.184-2.356,6.292,6.292,0,0,0,1.171-3.47,11.208,11.208,0,0,0-3.131-7.77m.127,10.777a3.265,3.265,0,0,1-1.845,1.6,3.233,3.233,0,0,1-2.4.116,4.524,4.524,0,0,1-2.008-1.641,14.363,14.363,0,0,1-1.7-3.179,10.96,10.96,0,0,1-1-4.86,3.133,3.133,0,0,1,2.173-2.752,3.256,3.256,0,0,1,2.412-.132,4.437,4.437,0,0,1,1.984,1.639,17.343,17.343,0,0,1,2.677,6.647,4.5,4.5,0,0,1-.29,2.567" transform="translate(-1.802 -2.645)" fill="#5eb3e4"/><path d="M141.689,153.02l.729,1.478a4.054,4.054,0,0,1,.319.985,1.6,1.6,0,0,1-.075.9,1.644,1.644,0,0,1-.594.726l-3.284,2.384-6.93-9.547a1.749,1.749,0,0,1-.381-.834.829.829,0,0,1,.166-.588,2.42,2.42,0,0,1,.485-.46l.536-.389-.624-.859-5.6,4.066.624.858.535-.389a2.186,2.186,0,0,1,.611-.322.864.864,0,0,1,.624.041,1.911,1.911,0,0,1,.705.663l6.13,8.444a1.923,1.923,0,0,1,.405.869.86.86,0,0,1-.147.615,2.188,2.188,0,0,1-.5.481l-.536.389.624.858,9.8-7.113-2.676-3.943Z" transform="translate(-2.027 -2.522)" fill="#5eb3e4"/><path d="M28.354,62.644l-.278.695a2.325,2.325,0,0,1-.344.6.818.818,0,0,1-.565.305,2.036,2.036,0,0,1-.938-.191L15.355,59.7l.683-1.708a1.63,1.63,0,0,1,.915-1.063,2.265,2.265,0,0,1,1.253.018l1.16.3.485-1.211-3.8-1.405L11.286,66.549l3.719,1.6.484-1.211-1.058-.561a2.2,2.2,0,0,1-.914-.861,1.62,1.62,0,0,1,.066-1.39l.684-1.708L25.16,66.779a1.846,1.846,0,0,1,.8.515.864.864,0,0,1,.194.6,2.233,2.233,0,0,1-.163.672l-.277.695.985.394,2.644-6.611Z" transform="translate(-0.181 -1.044)" fill="#5eb3e4"/><path d="M25.334,53.449a10.487,10.487,0,0,0,3.883,1.782,6.114,6.114,0,0,0,3.632-.306,7.183,7.183,0,0,0,3.08-2.642,7.031,7.031,0,0,0,1.4-3.712,6.287,6.287,0,0,0-.9-3.551,10.023,10.023,0,0,0-2.956-3.077,10.046,10.046,0,0,0-3.893-1.749,6.253,6.253,0,0,0-3.632.344,7.051,7.051,0,0,0-3.01,2.562,7.306,7.306,0,0,0-1.468,3.792,6.045,6.045,0,0,0,.9,3.512,10.312,10.312,0,0,0,2.966,3.045M24.014,43.86a3.271,3.271,0,0,1,1.955-1.422,4.44,4.44,0,0,1,2.557.3,14.753,14.753,0,0,1,3.144,1.758,14.8,14.8,0,0,1,2.713,2.369,4.5,4.5,0,0,1,1.15,2.314,3.725,3.725,0,0,1-2.643,3.75,4.524,4.524,0,0,1-2.578-.287,14.41,14.41,0,0,1-3.151-1.749,10.93,10.93,0,0,1-3.478-3.537,3.137,3.137,0,0,1,.331-3.494" transform="translate(-0.344 -0.811)" fill="#5eb3e4"/><path d="M32.26,32.655a2.255,2.255,0,0,1,.626-.363,1,1,0,0,1,.591-.022,2.056,2.056,0,0,1,.686.359l11.22,8.058,1.891-1.47-4.2-10.557,9.5,6.435,1.773-1.378-5.1-12.132a4.655,4.655,0,0,1-.343-1.1,1.065,1.065,0,0,1,.106-.7,1.906,1.906,0,0,1,.484-.527l.321-.249-.65-.838-4.306,3.347.651.836.388-.3a1.842,1.842,0,0,1,.974-.455.907.907,0,0,1,.762.421,2.918,2.918,0,0,1,.266.465q.161.328.27.572l2.22,5.156c.193.436.39.862.59,1.283s.393.824.576,1.211.354.74.511,1.057q-.487-.416-1.316-1.048t-1.738-1.241l-7.573-5.109-1.215.946,3.541,8.982q.306.776.628,1.487t.651,1.412q-.356-.353-.851-.764t-1.028-.819q-.534-.406-1.027-.764l-4.82-3.52c-.141-.11-.287-.228-.441-.356a2.341,2.341,0,0,1-.337-.329.94.94,0,0,1-.231-.821,1.566,1.566,0,0,1,.606-.787l.39-.3-.651-.837-5.268,4.094.651.837Z" transform="translate(-0.503 -0.459)" fill="#5eb3e4"/><path d="M56.45,16.283a2.221,2.221,0,0,1,.673-.158.866.866,0,0,1,.593.2,1.925,1.925,0,0,1,.517.821l3.84,9.819a1.608,1.608,0,0,1,.139.886.866.866,0,0,1-.32.532,2.38,2.38,0,0,1-.584.322l-.618.241.386.988,11.293-4.416-1.289-3.7-1.254.491.222.981a2.662,2.662,0,0,1,.073.89,1.589,1.589,0,0,1-.268.755,1.451,1.451,0,0,1-.7.52l-3.923,1.535-2.271-5.805,4.74-1.855-.442-1.13-4.74,1.855-2.019-5.161,3.346-1.309a1.363,1.363,0,0,1,1.536.26,2.433,2.433,0,0,1,.532.744l.462.889,1.255-.491L66.1,11.37,55.445,15.536l.387.988Z" transform="translate(-0.889 -0.35)" fill="#5eb3e4"/><path d="M74.122,10.3a2.346,2.346,0,0,1,.668-.006.866.866,0,0,1,.539.307,1.659,1.659,0,0,1,.316.863l1.469,10.526a1.615,1.615,0,0,1-.07.9.874.874,0,0,1-.434.443,2.35,2.35,0,0,1-.644.177l-.656.092.146,1.051,6.862-.958-.147-1.051-.656.092a2.542,2.542,0,0,1-.679.008.834.834,0,0,1-.54-.307,1.7,1.7,0,0,1-.3-.844l-.6-4.309,1.525-.214,3.311,4.39a4.411,4.411,0,0,0,1.154,1.074,2.949,2.949,0,0,0,1.4.384,12.033,12.033,0,0,0,2.117-.143l.529-.074-.147-1.051-.064.01a1.709,1.709,0,0,1-1.17-.264,5.47,5.47,0,0,1-1.232-1.172l-3.3-4.13a6.046,6.046,0,0,0,1.312-.97,3.878,3.878,0,0,0,.933-1.442,4.023,4.023,0,0,0,.165-1.99,3.958,3.958,0,0,0-.915-2.146,3.648,3.648,0,0,0-2.042-1.091,9.628,9.628,0,0,0-3.262,0l-6.4.892.148,1.051ZM79.6,9.662a3.981,3.981,0,0,1,1.726.065,1.806,1.806,0,0,1,1.036.85,4.869,4.869,0,0,1,.525,1.751,4.085,4.085,0,0,1-.257,2.494,2.63,2.63,0,0,1-2.111,1.115l-1.293.181-.877-6.282Z" transform="translate(-1.176 -0.301)" fill="#5eb3e4"/><path d="M106.024,23.521l-.645-.15a2.245,2.245,0,0,1-.635-.247.858.858,0,0,1-.386-.512,1.909,1.909,0,0,1,.035-.957l1.114-4.809,5.937,1.375-1.114,4.809a1.941,1.941,0,0,1-.391.877.858.858,0,0,1-.561.291,2.192,2.192,0,0,1-.689-.059l-.645-.15-.239,1.032,6.75,1.564.239-1.033-.645-.15a2.388,2.388,0,0,1-.616-.231.828.828,0,0,1-.395-.48,1.686,1.686,0,0,1,.022-.9l2.378-10.27a2.016,2.016,0,0,1,.382-.89.83.83,0,0,1,.57-.279,2.252,2.252,0,0,1,.667.055l.646.15.239-1.033-6.75-1.564L111.054,11l.646.15a2.213,2.213,0,0,1,.645.25.872.872,0,0,1,.378.5,1.921,1.921,0,0,1-.037.968l-.962,4.155-5.937-1.376.961-4.155a1.92,1.92,0,0,1,.393-.887.861.861,0,0,1,.57-.278,2.184,2.184,0,0,1,.677.057l.647.15.239-1.034-6.751-1.564-.239,1.034.645.149a2.379,2.379,0,0,1,.627.235.87.87,0,0,1,.395.479,1.663,1.663,0,0,1-.016.919L101.56,21a1.926,1.926,0,0,1-.39.876.86.86,0,0,1-.572.289,2.221,2.221,0,0,1-.678-.057l-.645-.15-.24,1.033,6.75,1.564Z" transform="translate(-1.588 -0.295)" fill="#5eb3e4"/><path d="M123.788,31.492a7.045,7.045,0,0,0,3.847.962,6.288,6.288,0,0,0,3.424-1.3,10.023,10.023,0,0,0,2.719-3.289,10.035,10.035,0,0,0,1.29-4.066,6.248,6.248,0,0,0-.758-3.569,7.037,7.037,0,0,0-2.891-2.7,7.3,7.3,0,0,0-3.935-1.022,6.039,6.039,0,0,0-3.386,1.3,10.339,10.339,0,0,0-2.685,3.294,10.455,10.455,0,0,0-1.323,4.062,6.1,6.1,0,0,0,.719,3.573,7.189,7.189,0,0,0,2.978,2.757m-1-5.538a14.433,14.433,0,0,1,1.377-3.33,10.949,10.949,0,0,1,3.114-3.862,3.141,3.141,0,0,1,3.511-.072,3.278,3.278,0,0,1,1.636,1.78,4.44,4.44,0,0,1,0,2.574,14.891,14.891,0,0,1-1.385,3.325,14.917,14.917,0,0,1-2.044,2.968,4.5,4.5,0,0,1-2.168,1.406,3.724,3.724,0,0,1-4.027-2.194,4.526,4.526,0,0,1-.011-2.595" transform="translate(-1.925 -0.433)" fill="#5eb3e4"/><path d="M138.105,41.867a6.88,6.88,0,0,0,2.549,1.627,3.8,3.8,0,0,0,2.382.029,5.057,5.057,0,0,0,2.119-1.409l5.833-6.193a2.018,2.018,0,0,1,.777-.577.817.817,0,0,1,.632.046,2.24,2.24,0,0,1,.55.384l.5.468.726-.772-4.017-3.782-.726.772.482.455a2.4,2.4,0,0,1,.423.518.878.878,0,0,1,.1.613,1.662,1.662,0,0,1-.476.786L144.1,41.056a3.882,3.882,0,0,1-1.49,1.036,2.434,2.434,0,0,1-1.566.041,4.01,4.01,0,0,1-1.567-.971,3.748,3.748,0,0,1-1.255-2.192,3.129,3.129,0,0,1,1.1-2.505l5.758-6.115a1.916,1.916,0,0,1,.785-.569.862.862,0,0,1,.633.046,2.2,2.2,0,0,1,.558.39l.482.455.727-.771-5.045-4.75-.726.771.482.455a2.4,2.4,0,0,1,.423.518.875.875,0,0,1,.1.613,1.666,1.666,0,0,1-.476.786L137.3,34.36a5.235,5.235,0,0,0-1.446,2.534,3.933,3.933,0,0,0,.348,2.5,8.525,8.525,0,0,0,1.9,2.474" transform="translate(-2.177 -0.571)" fill="#5eb3e4"/><path d="M153.479,44.352a4.122,4.122,0,0,0-.549,1.9,10.629,10.629,0,0,0,.228,2.629,15.614,15.614,0,0,1,.318,2.181,3.435,3.435,0,0,1-.195,1.5,2.275,2.275,0,0,1-.876,1.026,2.341,2.341,0,0,1-1.911.4,2.928,2.928,0,0,1-1.717-1.332,2.728,2.728,0,0,1-.509-1.554,2.768,2.768,0,0,1,.5-1.53,5.259,5.259,0,0,1,1.4-1.377,2.721,2.721,0,0,0-.74-.752,1.653,1.653,0,0,0-.918-.3,1.758,1.758,0,0,0-1.009.343,2.641,2.641,0,0,0-.782.833,2.687,2.687,0,0,0-.364,1.224,4.15,4.15,0,0,0,.244,1.588,8.415,8.415,0,0,0,1.022,1.967,7.068,7.068,0,0,0,2.127,2.139,4.6,4.6,0,0,0,2.415.721,4.2,4.2,0,0,0,2.391-.768,3.947,3.947,0,0,0,1.328-1.421,4.35,4.35,0,0,0,.464-1.909,10.991,10.991,0,0,0-.273-2.56,12.573,12.573,0,0,1-.3-2.349,3.138,3.138,0,0,1,.278-1.449,2.554,2.554,0,0,1,.875-.949,2,2,0,0,1,1.685-.345,2.417,2.417,0,0,1,1.4,1.056,1.927,1.927,0,0,1,.371,1.386,2.7,2.7,0,0,1-.538,1.238,4.126,4.126,0,0,1-.953.91,2.677,2.677,0,0,0,1.34,1.16,1.473,1.473,0,0,0,1.32-.19,1.862,1.862,0,0,0,.756-1.087,3.261,3.261,0,0,0-.059-1.7,7.459,7.459,0,0,0-1.069-2.194,6.271,6.271,0,0,0-1.865-1.864,4.3,4.3,0,0,0-2.206-.682,3.751,3.751,0,0,0-2.212.687,4.594,4.594,0,0,0-1.414,1.427" transform="translate(-2.347 -0.845)" fill="#5eb3e4"/><path d="M166.947,54.8l-.985.395.247.615a2.244,2.244,0,0,1,.164.672.873.873,0,0,1-.193.6,1.906,1.906,0,0,1-.816.523l-9.786,3.923a1.618,1.618,0,0,1-.886.148.869.869,0,0,1-.534-.315,2.364,2.364,0,0,1-.328-.583l-.246-.616-.985.4,4.512,11.254,3.693-1.32-.5-1.25-.98.231a2.637,2.637,0,0,1-.888.08,1.593,1.593,0,0,1-.759-.26,1.465,1.465,0,0,1-.524-.7l-1.568-3.91,5.787-2.32,1.894,4.723,1.125-.451L162.5,61.908l5.143-2.063,1.337,3.336a1.365,1.365,0,0,1-.247,1.538,2.434,2.434,0,0,1-.739.538l-.886.47.5,1.251,3.6-1.558Z" transform="translate(-2.447 -1.047)" fill="#5eb3e4"/><path d="M95.079,84.872V76.407s-.017-.377-.06-.669c-.19-1.136-.965-3.99-3.974-3.99s-3.783,2.853-3.973,3.99c-.043.292-.06.669-.06.669v8.465h8.068Z" transform="translate(-1.395 -1.319)" fill="#5eb3e4"/><path d="M114.6,125.345,110.7,64.22l3.343-3.01,1.6-19.5-.468-.2a45.832,45.832,0,0,0-7.281-2.072l-.2-.042L105.31,41.6l-.228,5.228c-.931-.178-1.908-.342-2.914-.491l.314-7.83-.357-.046a81.551,81.551,0,0,0-8.4-.636L93.5,37.82l-1.213,1.925v5.782c-1.066-.02-2.245-.021-3.369,0V39.745L87.706,37.82l-.223.006a81.508,81.508,0,0,0-8.4.636l-.357.046.314,7.83c-1,.149-1.982.313-2.915.492L75.9,41.6,73.51,39.4l-.2.042a46.049,46.049,0,0,0-7.279,2.071l-.471.2,1.6,19.5L70.5,64.22l-3.9,61.125-5.342,2.62L59.5,139.95H121.71l-1.767-11.985Zm-6.207-84.768a46.475,46.475,0,0,1,6.185,1.784l-.223,2.716a54.7,54.7,0,0,0-6.095-1.873ZM94.336,38.85c2.579.083,4.949.277,7.093.539l-.1,2.441c-2.152-.321-4.515-.57-7.044-.7Zm-7.464,0,.047,2.281c-2.529.13-4.892.379-7.044.7l-.1-2.441c2.144-.262,4.514-.457,7.093-.539M66.629,42.361a46.474,46.474,0,0,1,6.185-1.784l.133,2.626a54.7,54.7,0,0,0-6.095,1.873Zm1.454,17.713-.341-4.159a55.8,55.8,0,0,1,7.486-2.122l-.036-.828a57.511,57.511,0,0,0-7.519,2.1L67.26,50.04c.8-.252,1.82-.56,3.088-.9l-.083-.828c-1.246.33-2.263.632-3.074.886l-.286-3.48a51.932,51.932,0,0,1,6.074-1.889l.237,4.694.371-.1a55.527,55.527,0,0,1,6.44-1.205l.058-.008L79.9,42.446c2.146-.321,4.506-.571,7.033-.7l.089,4.227h-.007l.012.627c.978-.043,2.005-.062,3.052-.069h0c.176,0,.349,0,.526-.006s.349,0,.526.006h0c1.047.007,2.074.026,3.052.069l.012-.627h-.007l.089-4.227c2.528.13,4.887.38,7.033.7l-.186,4.763.058.008a55.527,55.527,0,0,1,6.44,1.205l.371.1.237-4.694a51.931,51.931,0,0,1,6.074,1.889l-.286,3.48c-.811-.254-1.828-.556-3.074-.886l-.083.828c1.267.338,2.291.646,3.088.9l-.412,5.027a57.511,57.511,0,0,0-7.519-2.1l-.036.828a55.8,55.8,0,0,1,7.486,2.122l-.342,4.159c-1.871-.828-10.017-4.072-22.5-3.938h-.041C78.1,56,69.955,59.247,68.083,60.074M67.9,120.99c.872-.043,4.15-.2,9.036-.325l.025-.825c-4.761.124-8.007.274-9.007.323l.373-5.841c.6-.019,2.255-.072,4.7-.131l.035-.825c-2.367.057-4.017.108-4.686.13l.357-5.591c.825-.1,3.988-.459,8.613-.771l.026-.828c-4.437.3-7.552.643-8.585.764l.4-6.36c.907-.13,4.816-.658,10.563-1.007l.007-.824c-5.505.332-9.341.828-10.516.991l.436-6.839c.457-.062,2.268-.3,5.118-.539l.036-.828c-2.681.226-4.454.446-5.1.53l.445-6.962a93.416,93.416,0,0,1,9.7-1.379l.007-.755a96.648,96.648,0,0,0-9.659,1.352l.428-6.718c.394-.089,1.8-.395,4-.74l.037-.839c-1.988.31-3.363.59-3.979.724l.438-6.864a59.833,59.833,0,0,1,8.877-1.583l.041-.828A62.044,62.044,0,0,0,71.2,69.148l.32-5.009a70.358,70.358,0,0,1,18.555-2.725h0c.176,0,.348-.01.526-.011s.35.008.526.011h0a70.367,70.367,0,0,1,18.555,2.725l.32,5.009a62.073,62.073,0,0,0-8.864-1.545l.041.828a59.832,59.832,0,0,1,8.877,1.583l.438,6.864c-.616-.134-1.992-.414-3.979-.724l.037.839c2.2.345,3.6.651,4,.74l.428,6.718a96.647,96.647,0,0,0-9.659-1.352l.007.755a93.462,93.462,0,0,1,9.7,1.379l.445,6.962c-.646-.085-2.42-.3-5.1-.53l.036.828c2.85.244,4.661.477,5.118.539l.436,6.839c-1.175-.162-5.01-.659-10.516-.991l.007.824c5.746.348,9.656.877,10.562,1.007l.405,6.36c-1.033-.121-4.148-.465-8.585-.764l.026.828c4.625.312,7.788.672,8.613.771l.357,5.591c-.67-.022-2.318-.073-4.686-.13l.035.825c2.447.059,4.107.112,4.7.131l.373,5.841c-1-.049-4.246-.2-9.007-.323l.025.825c4.885.128,8.164.281,9.036.325l.276,4.355H98.8V113.328c0-.075-.221-6.55-8.179-6.778l-.021,0-.021,0c-7.957.227-8.178,6.7-8.179,6.778v12.016H67.621Zm27.8-5.961v10.316H91.13v-15.21a4.868,4.868,0,0,1,3.4,1.366,4.156,4.156,0,0,1,.858,1.442,7.384,7.384,0,0,1,.314,2.086m-5.623-4.894v15.21h-4.57V115.029a7.384,7.384,0,0,1,.314-2.086,4.156,4.156,0,0,1,.858-1.442,4.868,4.868,0,0,1,3.4-1.366M62.154,128.872h56.9l.335,2.264H61.819ZM91.13,138.939H60.669l1.029-6.98H119.51l1.029,6.98Z" transform="translate(-0.954 -0.775)" fill="#5eb3e4"/></g></g></g></svg>